<svg width="1920" height="1080" viewBox="0 0 1920 1080" fill="none" xmlns="http://www.w3.org/2000/svg">
<rect width="1920" height="1080" fill="white"/>
<rect x="246" y="393" width="447" height="293" rx="28" stroke="black" stroke-width="6"/>
<path d="M410.795 563H394.295V516.455H410.932C415.614 516.455 419.644 517.386 423.023 519.25C426.402 521.098 429 523.758 430.818 527.227C432.652 530.697 433.568 534.848 433.568 539.682C433.568 544.53 432.652 548.697 430.818 552.182C429 555.667 426.386 558.341 422.977 560.205C419.583 562.068 415.523 563 410.795 563ZM404.136 554.568H410.386C413.295 554.568 415.742 554.053 417.727 553.023C419.727 551.977 421.227 550.364 422.227 548.182C423.242 545.985 423.75 543.152 423.75 539.682C423.75 536.242 423.242 533.432 422.227 531.25C421.227 529.068 419.735 527.462 417.75 526.432C415.765 525.402 413.318 524.886 410.409 524.886H404.136V554.568ZM450.358 542.818V563H440.676V516.455H450.085V534.25H450.494C451.282 532.189 452.555 530.576 454.312 529.409C456.07 528.227 458.275 527.636 460.926 527.636C463.35 527.636 465.464 528.167 467.267 529.227C469.085 530.273 470.494 531.78 471.494 533.75C472.509 535.705 473.009 538.045 472.994 540.773V563H463.312V542.5C463.328 540.348 462.782 538.674 461.676 537.477C460.585 536.28 459.055 535.682 457.085 535.682C455.767 535.682 454.6 535.962 453.585 536.523C452.585 537.083 451.797 537.902 451.222 538.977C450.661 540.038 450.373 541.318 450.358 542.818ZM490.568 563.659C488.341 563.659 486.356 563.273 484.614 562.5C482.871 561.712 481.492 560.553 480.477 559.023C479.477 557.477 478.977 555.553 478.977 553.25C478.977 551.311 479.333 549.682 480.045 548.364C480.758 547.045 481.727 545.985 482.955 545.182C484.182 544.379 485.576 543.773 487.136 543.364C488.712 542.955 490.364 542.667 492.091 542.5C494.121 542.288 495.758 542.091 497 541.909C498.242 541.712 499.144 541.424 499.705 541.045C500.265 540.667 500.545 540.106 500.545 539.364V539.227C500.545 537.788 500.091 536.674 499.182 535.886C498.288 535.098 497.015 534.705 495.364 534.705C493.621 534.705 492.235 535.091 491.205 535.864C490.174 536.621 489.492 537.576 489.159 538.727L480.205 538C480.659 535.879 481.553 534.045 482.886 532.5C484.22 530.939 485.939 529.742 488.045 528.909C490.167 528.061 492.621 527.636 495.409 527.636C497.348 527.636 499.205 527.864 500.977 528.318C502.765 528.773 504.348 529.477 505.727 530.432C507.121 531.386 508.22 532.614 509.023 534.114C509.826 535.598 510.227 537.379 510.227 539.455V563H501.045V558.159H500.773C500.212 559.25 499.462 560.212 498.523 561.045C497.583 561.864 496.455 562.508 495.136 562.977C493.818 563.432 492.295 563.659 490.568 563.659ZM493.341 556.977C494.765 556.977 496.023 556.697 497.114 556.136C498.205 555.561 499.061 554.788 499.682 553.818C500.303 552.848 500.614 551.75 500.614 550.523V546.818C500.311 547.015 499.894 547.197 499.364 547.364C498.848 547.515 498.265 547.659 497.614 547.795C496.962 547.917 496.311 548.03 495.659 548.136C495.008 548.227 494.417 548.311 493.886 548.386C492.75 548.553 491.758 548.818 490.909 549.182C490.061 549.545 489.402 550.038 488.932 550.659C488.462 551.265 488.227 552.023 488.227 552.932C488.227 554.25 488.705 555.258 489.659 555.955C490.629 556.636 491.856 556.977 493.341 556.977ZM527.42 516.455V563H517.739V516.455H527.42ZM544.858 516.455V563H535.176V516.455H544.858Z" fill="black"/>
<rect x="1225" y="393" width="448" height="293" rx="28" stroke="black" stroke-width="6"/>
<path d="M1383.9 516.455H1393.63V548.909C1393.63 551.909 1392.95 554.515 1391.61 556.727C1390.27 558.939 1388.42 560.644 1386.04 561.841C1383.66 563.038 1380.89 563.636 1377.74 563.636C1374.94 563.636 1372.39 563.144 1370.11 562.159C1367.83 561.159 1366.03 559.644 1364.7 557.614C1363.36 555.568 1362.7 553 1362.72 549.909H1372.51C1372.54 551.136 1372.79 552.189 1373.26 553.068C1373.75 553.932 1374.41 554.598 1375.24 555.068C1376.09 555.523 1377.09 555.75 1378.24 555.75C1379.45 555.75 1380.48 555.492 1381.31 554.977C1382.16 554.447 1382.8 553.674 1383.24 552.659C1383.68 551.644 1383.9 550.394 1383.9 548.909V516.455ZM1427.01 529.841C1426.83 528.008 1426.05 526.583 1424.67 525.568C1423.29 524.553 1421.42 524.045 1419.06 524.045C1417.45 524.045 1416.1 524.273 1414.99 524.727C1413.89 525.167 1413.04 525.78 1412.45 526.568C1411.87 527.356 1411.58 528.25 1411.58 529.25C1411.55 530.083 1411.73 530.811 1412.11 531.432C1412.5 532.053 1413.04 532.591 1413.72 533.045C1414.4 533.485 1415.19 533.871 1416.08 534.205C1416.98 534.523 1417.93 534.795 1418.95 535.023L1423.13 536.023C1425.16 536.477 1427.02 537.083 1428.72 537.841C1430.42 538.598 1431.89 539.53 1433.13 540.636C1434.37 541.742 1435.33 543.045 1436.01 544.545C1436.71 546.045 1437.07 547.765 1437.08 549.705C1437.07 552.553 1436.34 555.023 1434.9 557.114C1433.48 559.189 1431.42 560.803 1428.72 561.955C1426.04 563.091 1422.8 563.659 1419.01 563.659C1415.26 563.659 1411.98 563.083 1409.2 561.932C1406.42 560.78 1404.26 559.076 1402.7 556.818C1401.15 554.545 1400.34 551.735 1400.26 548.386H1409.79C1409.89 549.947 1410.34 551.25 1411.13 552.295C1411.93 553.326 1413 554.106 1414.33 554.636C1415.68 555.152 1417.2 555.409 1418.9 555.409C1420.57 555.409 1422.01 555.167 1423.24 554.682C1424.48 554.197 1425.45 553.523 1426.13 552.659C1426.81 551.795 1427.15 550.803 1427.15 549.682C1427.15 548.636 1426.84 547.758 1426.22 547.045C1425.61 546.333 1424.72 545.727 1423.54 545.227C1422.37 544.727 1420.94 544.273 1419.24 543.864L1414.17 542.591C1410.25 541.636 1407.15 540.144 1404.88 538.114C1402.61 536.083 1401.48 533.348 1401.49 529.909C1401.48 527.091 1402.23 524.629 1403.74 522.523C1405.27 520.417 1407.37 518.773 1410.04 517.591C1412.7 516.409 1415.73 515.818 1419.13 515.818C1422.58 515.818 1425.6 516.409 1428.17 517.591C1430.76 518.773 1432.78 520.417 1434.22 522.523C1435.66 524.629 1436.4 527.068 1436.45 529.841H1427.01ZM1486.47 539.727C1486.47 544.803 1485.51 549.121 1483.59 552.682C1481.68 556.242 1479.07 558.962 1475.77 560.841C1472.48 562.705 1468.79 563.636 1464.68 563.636C1460.54 563.636 1456.83 562.697 1453.54 560.818C1450.25 558.939 1447.66 556.22 1445.75 552.659C1443.84 549.098 1442.88 544.788 1442.88 539.727C1442.88 534.652 1443.84 530.333 1445.75 526.773C1447.66 523.212 1450.25 520.5 1453.54 518.636C1456.83 516.758 1460.54 515.818 1464.68 515.818C1468.79 515.818 1472.48 516.758 1475.77 518.636C1479.07 520.5 1481.68 523.212 1483.59 526.773C1485.51 530.333 1486.47 534.652 1486.47 539.727ZM1476.5 539.727C1476.5 536.439 1476 533.667 1475.02 531.409C1474.05 529.152 1472.68 527.439 1470.91 526.273C1469.13 525.106 1467.06 524.523 1464.68 524.523C1462.3 524.523 1460.22 525.106 1458.45 526.273C1456.68 527.439 1455.3 529.152 1454.32 531.409C1453.35 533.667 1452.86 536.439 1452.86 539.727C1452.86 543.015 1453.35 545.788 1454.32 548.045C1455.3 550.303 1456.68 552.015 1458.45 553.182C1460.22 554.348 1462.3 554.932 1464.68 554.932C1467.06 554.932 1469.13 554.348 1470.91 553.182C1472.68 552.015 1474.05 550.303 1475.02 548.045C1476 545.788 1476.5 543.015 1476.5 539.727ZM1532.7 516.455V563H1524.2L1503.95 533.705H1503.61V563H1493.76V516.455H1502.4L1522.49 545.727H1522.9V516.455H1532.7Z" fill="black"/>
<path d="M1218.21 543.122C1220.11 541.122 1220.11 537.878 1218.2 535.878L1187.13 503.279C1185.22 501.278 1182.14 501.278 1180.24 503.279C1178.34 505.279 1178.34 508.523 1180.25 510.523L1207.87 539.5L1180.34 568.477C1178.43 570.478 1178.44 573.721 1180.35 575.721C1182.25 577.722 1185.34 577.722 1187.24 575.721L1218.21 543.122ZM695.907 539.5L695.915 544.622L1214.77 544.623L1214.76 539.5L1214.75 534.378L695.899 534.377L695.907 539.5Z" fill="black"/>
</svg>
