<svg width="1920" height="1080" viewBox="0 0 1920 1080" fill="none" xmlns="http://www.w3.org/2000/svg">
<rect width="1920" height="1080" fill="white"/>
<rect x="812" y="443" width="297" height="194" rx="28" stroke="black" stroke-width="6"/>
<path d="M901.795 563.5H885.295V516.955H901.932C906.614 516.955 910.644 517.886 914.023 519.75C917.402 521.598 920 524.258 921.818 527.727C923.652 531.197 924.568 535.348 924.568 540.182C924.568 545.03 923.652 549.197 921.818 552.682C920 556.167 917.386 558.841 913.977 560.705C910.583 562.568 906.523 563.5 901.795 563.5ZM895.136 555.068H901.386C904.295 555.068 906.742 554.553 908.727 553.523C910.727 552.477 912.227 550.864 913.227 548.682C914.242 546.485 914.75 543.652 914.75 540.182C914.75 536.742 914.242 533.932 913.227 531.75C912.227 529.568 910.735 527.962 908.75 526.932C906.765 525.902 904.318 525.386 901.409 525.386H895.136V555.068ZM941.358 543.318V563.5H931.676V516.955H941.085V534.75H941.494C942.282 532.689 943.555 531.076 945.312 529.909C947.07 528.727 949.275 528.136 951.926 528.136C954.35 528.136 956.464 528.667 958.267 529.727C960.085 530.773 961.494 532.28 962.494 534.25C963.509 536.205 964.009 538.545 963.994 541.273V563.5H954.312V543C954.328 540.848 953.782 539.174 952.676 537.977C951.585 536.78 950.055 536.182 948.085 536.182C946.767 536.182 945.6 536.462 944.585 537.023C943.585 537.583 942.797 538.402 942.222 539.477C941.661 540.538 941.373 541.818 941.358 543.318ZM981.568 564.159C979.341 564.159 977.356 563.773 975.614 563C973.871 562.212 972.492 561.053 971.477 559.523C970.477 557.977 969.977 556.053 969.977 553.75C969.977 551.811 970.333 550.182 971.045 548.864C971.758 547.545 972.727 546.485 973.955 545.682C975.182 544.879 976.576 544.273 978.136 543.864C979.712 543.455 981.364 543.167 983.091 543C985.121 542.788 986.758 542.591 988 542.409C989.242 542.212 990.144 541.924 990.705 541.545C991.265 541.167 991.545 540.606 991.545 539.864V539.727C991.545 538.288 991.091 537.174 990.182 536.386C989.288 535.598 988.015 535.205 986.364 535.205C984.621 535.205 983.235 535.591 982.205 536.364C981.174 537.121 980.492 538.076 980.159 539.227L971.205 538.5C971.659 536.379 972.553 534.545 973.886 533C975.22 531.439 976.939 530.242 979.045 529.409C981.167 528.561 983.621 528.136 986.409 528.136C988.348 528.136 990.205 528.364 991.977 528.818C993.765 529.273 995.348 529.977 996.727 530.932C998.121 531.886 999.22 533.114 1000.02 534.614C1000.83 536.098 1001.23 537.879 1001.23 539.955V563.5H992.045V558.659H991.773C991.212 559.75 990.462 560.712 989.523 561.545C988.583 562.364 987.455 563.008 986.136 563.477C984.818 563.932 983.295 564.159 981.568 564.159ZM984.341 557.477C985.765 557.477 987.023 557.197 988.114 556.636C989.205 556.061 990.061 555.288 990.682 554.318C991.303 553.348 991.614 552.25 991.614 551.023V547.318C991.311 547.515 990.894 547.697 990.364 547.864C989.848 548.015 989.265 548.159 988.614 548.295C987.962 548.417 987.311 548.53 986.659 548.636C986.008 548.727 985.417 548.811 984.886 548.886C983.75 549.053 982.758 549.318 981.909 549.682C981.061 550.045 980.402 550.538 979.932 551.159C979.462 551.765 979.227 552.523 979.227 553.432C979.227 554.75 979.705 555.758 980.659 556.455C981.629 557.136 982.856 557.477 984.341 557.477ZM1018.42 516.955V563.5H1008.74V516.955H1018.42ZM1035.86 516.955V563.5H1026.18V516.955H1035.86Z" fill="black"/>
<rect x="1467" y="84" width="297" height="194" rx="28" stroke="black" stroke-width="6"/>
<path d="M1550.4 157.955H1560.13V190.409C1560.13 193.409 1559.45 196.015 1558.11 198.227C1556.77 200.439 1554.92 202.144 1552.54 203.341C1550.16 204.538 1547.39 205.136 1544.24 205.136C1541.44 205.136 1538.89 204.644 1536.61 203.659C1534.33 202.659 1532.53 201.144 1531.2 199.114C1529.86 197.068 1529.2 194.5 1529.22 191.409H1539.01C1539.04 192.636 1539.29 193.689 1539.76 194.568C1540.25 195.432 1540.91 196.098 1541.74 196.568C1542.59 197.023 1543.59 197.25 1544.74 197.25C1545.95 197.25 1546.98 196.992 1547.81 196.477C1548.66 195.947 1549.3 195.174 1549.74 194.159C1550.18 193.144 1550.4 191.894 1550.4 190.409V157.955ZM1593.51 171.341C1593.33 169.508 1592.55 168.083 1591.17 167.068C1589.79 166.053 1587.92 165.545 1585.56 165.545C1583.95 165.545 1582.6 165.773 1581.49 166.227C1580.39 166.667 1579.54 167.28 1578.95 168.068C1578.37 168.856 1578.08 169.75 1578.08 170.75C1578.05 171.583 1578.23 172.311 1578.61 172.932C1579 173.553 1579.54 174.091 1580.22 174.545C1580.9 174.985 1581.69 175.371 1582.58 175.705C1583.48 176.023 1584.43 176.295 1585.45 176.523L1589.63 177.523C1591.66 177.977 1593.52 178.583 1595.22 179.341C1596.92 180.098 1598.39 181.03 1599.63 182.136C1600.87 183.242 1601.83 184.545 1602.51 186.045C1603.21 187.545 1603.57 189.265 1603.58 191.205C1603.57 194.053 1602.84 196.523 1601.4 198.614C1599.98 200.689 1597.92 202.303 1595.22 203.455C1592.54 204.591 1589.3 205.159 1585.51 205.159C1581.76 205.159 1578.48 204.583 1575.7 203.432C1572.92 202.28 1570.76 200.576 1569.2 198.318C1567.65 196.045 1566.84 193.235 1566.76 189.886H1576.29C1576.39 191.447 1576.84 192.75 1577.63 193.795C1578.43 194.826 1579.5 195.606 1580.83 196.136C1582.18 196.652 1583.7 196.909 1585.4 196.909C1587.07 196.909 1588.51 196.667 1589.74 196.182C1590.98 195.697 1591.95 195.023 1592.63 194.159C1593.31 193.295 1593.65 192.303 1593.65 191.182C1593.65 190.136 1593.34 189.258 1592.72 188.545C1592.11 187.833 1591.22 187.227 1590.04 186.727C1588.87 186.227 1587.44 185.773 1585.74 185.364L1580.67 184.091C1576.75 183.136 1573.65 181.644 1571.38 179.614C1569.11 177.583 1567.98 174.848 1567.99 171.409C1567.98 168.591 1568.73 166.129 1570.24 164.023C1571.77 161.917 1573.87 160.273 1576.54 159.091C1579.2 157.909 1582.23 157.318 1585.63 157.318C1589.08 157.318 1592.1 157.909 1594.67 159.091C1597.26 160.273 1599.28 161.917 1600.72 164.023C1602.16 166.129 1602.9 168.568 1602.95 171.341H1593.51ZM1652.97 181.227C1652.97 186.303 1652.01 190.621 1650.09 194.182C1648.18 197.742 1645.57 200.462 1642.27 202.341C1638.98 204.205 1635.29 205.136 1631.18 205.136C1627.04 205.136 1623.33 204.197 1620.04 202.318C1616.75 200.439 1614.16 197.72 1612.25 194.159C1610.34 190.598 1609.38 186.288 1609.38 181.227C1609.38 176.152 1610.34 171.833 1612.25 168.273C1614.16 164.712 1616.75 162 1620.04 160.136C1623.33 158.258 1627.04 157.318 1631.18 157.318C1635.29 157.318 1638.98 158.258 1642.27 160.136C1645.57 162 1648.18 164.712 1650.09 168.273C1652.01 171.833 1652.97 176.152 1652.97 181.227ZM1643 181.227C1643 177.939 1642.5 175.167 1641.52 172.909C1640.55 170.652 1639.18 168.939 1637.41 167.773C1635.63 166.606 1633.56 166.023 1631.18 166.023C1628.8 166.023 1626.72 166.606 1624.95 167.773C1623.18 168.939 1621.8 170.652 1620.82 172.909C1619.85 175.167 1619.36 177.939 1619.36 181.227C1619.36 184.515 1619.85 187.288 1620.82 189.545C1621.8 191.803 1623.18 193.515 1624.95 194.682C1626.72 195.848 1628.8 196.432 1631.18 196.432C1633.56 196.432 1635.63 195.848 1637.41 194.682C1639.18 193.515 1640.55 191.803 1641.52 189.545C1642.5 187.288 1643 184.515 1643 181.227ZM1699.2 157.955V204.5H1690.7L1670.45 175.205H1670.11V204.5H1660.26V157.955H1668.9L1688.99 187.227H1689.4V157.955H1699.2Z" fill="black"/>
<rect x="1467" y="443" width="297" height="194" rx="28" stroke="black" stroke-width="6"/>
<path d="M1524.63 516.955H1535.65L1546.27 537H1546.72L1557.34 516.955H1568.36L1551.38 547.045V563.5H1541.61V547.045L1524.63 516.955ZM1577.01 563.5H1566.46L1582.53 516.955H1595.21L1611.26 563.5H1600.71L1589.05 527.591H1588.69L1577.01 563.5ZM1576.35 545.205H1601.26V552.886H1576.35V545.205ZM1616.86 516.955H1628.99L1641.81 548.227H1642.36L1655.18 516.955H1667.31V563.5H1657.77V533.205H1657.38L1645.34 563.273H1638.84L1626.79 533.091H1626.4V563.5H1616.86V516.955ZM1675.42 563.5V516.955H1685.26V555.386H1705.22V563.5H1675.42Z" fill="black"/>
<rect x="1467" y="802" width="297" height="194" rx="28" stroke="black" stroke-width="6"/>
<path d="M1591.64 892.25H1581.69C1581.51 890.962 1581.14 889.818 1580.58 888.818C1580.02 887.803 1579.3 886.939 1578.42 886.227C1577.54 885.515 1576.52 884.97 1575.37 884.591C1574.24 884.212 1573 884.023 1571.67 884.023C1569.26 884.023 1567.16 884.621 1565.37 885.818C1563.58 887 1562.2 888.727 1561.21 891C1560.23 893.258 1559.74 896 1559.74 899.227C1559.74 902.545 1560.23 905.333 1561.21 907.591C1562.21 909.848 1563.61 911.553 1565.39 912.705C1567.18 913.856 1569.25 914.432 1571.6 914.432C1572.92 914.432 1574.14 914.258 1575.26 913.909C1576.39 913.561 1577.4 913.053 1578.28 912.386C1579.16 911.705 1579.89 910.879 1580.46 909.909C1581.05 908.939 1581.46 907.833 1581.69 906.591L1591.64 906.636C1591.39 908.773 1590.74 910.833 1589.71 912.818C1588.7 914.788 1587.33 916.553 1585.6 918.114C1583.89 919.659 1581.84 920.886 1579.46 921.795C1577.1 922.689 1574.43 923.136 1571.44 923.136C1567.29 923.136 1563.58 922.197 1560.3 920.318C1557.05 918.439 1554.47 915.72 1552.58 912.159C1550.7 908.598 1549.76 904.288 1549.76 899.227C1549.76 894.152 1550.71 889.833 1552.62 886.273C1554.53 882.712 1557.12 880 1560.39 878.136C1563.67 876.258 1567.35 875.318 1571.44 875.318C1574.14 875.318 1576.64 875.697 1578.94 876.455C1581.26 877.212 1583.31 878.318 1585.1 879.773C1586.89 881.212 1588.34 882.977 1589.46 885.068C1590.6 887.159 1591.33 889.553 1591.64 892.25ZM1623.95 889.341C1623.77 887.508 1622.99 886.083 1621.61 885.068C1620.23 884.053 1618.36 883.545 1616 883.545C1614.39 883.545 1613.04 883.773 1611.93 884.227C1610.82 884.667 1609.97 885.28 1609.38 886.068C1608.81 886.856 1608.52 887.75 1608.52 888.75C1608.49 889.583 1608.66 890.311 1609.04 890.932C1609.44 891.553 1609.97 892.091 1610.66 892.545C1611.34 892.985 1612.13 893.371 1613.02 893.705C1613.91 894.023 1614.87 894.295 1615.88 894.523L1620.07 895.523C1622.1 895.977 1623.96 896.583 1625.66 897.341C1627.35 898.098 1628.82 899.03 1630.07 900.136C1631.31 901.242 1632.27 902.545 1632.95 904.045C1633.65 905.545 1634 907.265 1634.02 909.205C1634 912.053 1633.28 914.523 1631.84 916.614C1630.41 918.689 1628.35 920.303 1625.66 921.455C1622.97 922.591 1619.74 923.159 1615.95 923.159C1612.19 923.159 1608.92 922.583 1606.13 921.432C1603.36 920.28 1601.19 918.576 1599.63 916.318C1598.09 914.045 1597.28 911.235 1597.2 907.886H1606.72C1606.83 909.447 1607.28 910.75 1608.07 911.795C1608.87 912.826 1609.94 913.606 1611.27 914.136C1612.62 914.652 1614.14 914.909 1615.84 914.909C1617.5 914.909 1618.95 914.667 1620.18 914.182C1621.42 913.697 1622.38 913.023 1623.07 912.159C1623.75 911.295 1624.09 910.303 1624.09 909.182C1624.09 908.136 1623.78 907.258 1623.16 906.545C1622.55 905.833 1621.66 905.227 1620.47 904.727C1619.31 904.227 1617.88 903.773 1616.18 903.364L1611.11 902.091C1607.19 901.136 1604.09 899.644 1601.82 897.614C1599.54 895.583 1598.41 892.848 1598.43 889.409C1598.41 886.591 1599.16 884.129 1600.68 882.023C1602.21 879.917 1604.31 878.273 1606.97 877.091C1609.64 875.909 1612.67 875.318 1616.07 875.318C1619.52 875.318 1622.54 875.909 1625.11 877.091C1627.7 878.273 1629.72 879.917 1631.16 882.023C1632.6 884.129 1633.34 886.568 1633.38 889.341H1623.95ZM1649.05 875.955L1660.3 911.318H1660.73L1672 875.955H1682.91L1666.87 922.5H1654.18L1638.12 875.955H1649.05Z" fill="black"/>
<path d="M1467.83 902.434C1469.73 900.434 1469.72 897.191 1467.82 895.19L1436.75 862.591C1434.84 860.59 1431.75 860.59 1429.85 862.591C1427.95 864.591 1427.96 867.835 1429.86 869.835L1457.48 898.812L1429.95 927.789C1428.05 929.79 1428.06 933.033 1429.96 935.034C1431.87 937.034 1434.96 937.034 1436.86 935.034L1467.83 902.434ZM1111.87 540L1111.88 545.123C1148.2 545.123 1177.65 566.262 1204.3 599.369C1231.01 632.547 1254.24 676.893 1278.26 721.907C1302.15 766.663 1326.81 812.039 1356.19 846.181C1385.66 880.425 1420.37 903.935 1464.38 903.935L1464.38 898.812L1464.37 893.69C1424.13 893.69 1391.85 872.348 1363.42 839.315C1334.9 806.179 1310.75 761.853 1286.76 716.906C1262.91 672.216 1239.19 626.859 1211.74 592.76C1184.23 558.589 1152.3 534.878 1111.86 534.878L1111.87 540Z" fill="black"/>
<path d="M1467.77 177.174C1469.67 179.174 1469.67 182.417 1467.76 184.418L1436.69 217.017C1434.78 219.017 1431.7 219.017 1429.8 217.017C1427.9 215.017 1427.9 211.773 1429.81 209.773L1457.43 180.796L1429.9 151.819C1428 149.818 1428 146.575 1429.91 144.574C1431.81 142.574 1434.9 142.574 1436.8 144.574L1467.77 177.174ZM1111.81 539.608L1111.82 534.485C1148.14 534.485 1177.59 513.346 1204.25 480.239C1230.96 447.061 1254.18 402.715 1278.2 357.701C1302.09 312.945 1326.75 267.568 1356.13 233.427C1385.61 199.183 1420.32 175.673 1464.33 175.673L1464.32 180.796L1464.31 185.918C1424.07 185.918 1391.79 207.26 1363.36 240.293C1334.84 273.429 1310.69 317.755 1286.7 362.702C1262.85 407.391 1239.14 452.749 1211.69 486.848C1184.18 521.019 1152.25 544.73 1111.8 544.73L1111.81 539.608Z" fill="black"/>
<path d="M1462.28 543.622C1464.18 541.622 1464.18 538.378 1462.27 536.378L1431.2 503.779C1429.3 501.778 1426.21 501.778 1424.31 503.779C1422.41 505.779 1422.41 509.022 1424.32 511.023L1451.94 540L1424.41 568.977C1422.51 570.977 1422.51 574.221 1424.42 576.221C1426.33 578.222 1429.41 578.222 1431.31 576.221L1462.28 543.622ZM1111.87 540L1111.87 545.122L1458.84 545.122L1458.83 540L1458.82 534.877L1111.86 534.877L1111.87 540Z" fill="black"/>
<rect x="-3" y="3" width="297" height="194" rx="28" transform="matrix(-1 0 0 1 450 81)" stroke="black" stroke-width="6"/>
<path d="M239.401 157.955H249.128V190.409C249.128 193.409 248.454 196.015 247.105 198.227C245.772 200.439 243.916 202.144 241.537 203.341C239.158 204.538 236.393 205.136 233.241 205.136C230.438 205.136 227.893 204.644 225.605 203.659C223.332 202.659 221.529 201.144 220.196 199.114C218.863 197.068 218.204 194.5 218.219 191.409H228.014C228.045 192.636 228.295 193.689 228.764 194.568C229.249 195.432 229.908 196.098 230.741 196.568C231.59 197.023 232.59 197.25 233.741 197.25C234.954 197.25 235.976 196.992 236.81 196.477C237.658 195.947 238.302 195.174 238.741 194.159C239.181 193.144 239.401 191.894 239.401 190.409V157.955ZM282.514 171.341C282.332 169.508 281.552 168.083 280.173 167.068C278.795 166.053 276.923 165.545 274.56 165.545C272.954 165.545 271.598 165.773 270.491 166.227C269.385 166.667 268.537 167.28 267.946 168.068C267.37 168.856 267.082 169.75 267.082 170.75C267.052 171.583 267.226 172.311 267.605 172.932C267.999 173.553 268.537 174.091 269.219 174.545C269.901 174.985 270.688 175.371 271.582 175.705C272.476 176.023 273.431 176.295 274.446 176.523L278.628 177.523C280.658 177.977 282.522 178.583 284.219 179.341C285.916 180.098 287.385 181.03 288.628 182.136C289.87 183.242 290.832 184.545 291.514 186.045C292.211 187.545 292.567 189.265 292.582 191.205C292.567 194.053 291.84 196.523 290.401 198.614C288.976 200.689 286.916 202.303 284.219 203.455C281.537 204.591 278.302 205.159 274.514 205.159C270.757 205.159 267.484 204.583 264.696 203.432C261.923 202.28 259.757 200.576 258.196 198.318C256.651 196.045 255.84 193.235 255.764 189.886H265.287C265.393 191.447 265.84 192.75 266.628 193.795C267.431 194.826 268.499 195.606 269.832 196.136C271.181 196.652 272.704 196.909 274.401 196.909C276.067 196.909 277.514 196.667 278.741 196.182C279.984 195.697 280.946 195.023 281.628 194.159C282.31 193.295 282.651 192.303 282.651 191.182C282.651 190.136 282.34 189.258 281.719 188.545C281.113 187.833 280.219 187.227 279.037 186.727C277.87 186.227 276.438 185.773 274.741 185.364L269.673 184.091C265.749 183.136 262.651 181.644 260.378 179.614C258.105 177.583 256.976 174.848 256.991 171.409C256.976 168.591 257.726 166.129 259.241 164.023C260.772 161.917 262.87 160.273 265.537 159.091C268.204 157.909 271.234 157.318 274.628 157.318C278.082 157.318 281.098 157.909 283.673 159.091C286.264 160.273 288.279 161.917 289.719 164.023C291.158 166.129 291.901 168.568 291.946 171.341H282.514ZM341.974 181.227C341.974 186.303 341.012 190.621 339.088 194.182C337.179 197.742 334.573 200.462 331.27 202.341C327.982 204.205 324.285 205.136 320.179 205.136C316.043 205.136 312.33 204.197 309.043 202.318C305.755 200.439 303.156 197.72 301.247 194.159C299.338 190.598 298.384 186.288 298.384 181.227C298.384 176.152 299.338 171.833 301.247 168.273C303.156 164.712 305.755 162 309.043 160.136C312.33 158.258 316.043 157.318 320.179 157.318C324.285 157.318 327.982 158.258 331.27 160.136C334.573 162 337.179 164.712 339.088 168.273C341.012 171.833 341.974 176.152 341.974 181.227ZM331.997 181.227C331.997 177.939 331.505 175.167 330.52 172.909C329.55 170.652 328.179 168.939 326.406 167.773C324.634 166.606 322.558 166.023 320.179 166.023C317.8 166.023 315.724 166.606 313.952 167.773C312.179 168.939 310.8 170.652 309.815 172.909C308.846 175.167 308.361 177.939 308.361 181.227C308.361 184.515 308.846 187.288 309.815 189.545C310.8 191.803 312.179 193.515 313.952 194.682C315.724 195.848 317.8 196.432 320.179 196.432C322.558 196.432 324.634 195.848 326.406 194.682C328.179 193.515 329.55 191.803 330.52 189.545C331.505 187.288 331.997 184.515 331.997 181.227ZM388.196 157.955V204.5H379.696L359.446 175.205H359.105V204.5H349.264V157.955H357.901L377.991 187.227H378.401V157.955H388.196Z" fill="black"/>
<rect x="-3" y="3" width="297" height="194" rx="28" transform="matrix(-1 0 0 1 450 440)" stroke="black" stroke-width="6"/>
<path d="M213.631 516.955H224.653L235.267 537H235.722L246.335 516.955H257.358L240.381 547.045V563.5H230.608V547.045L213.631 516.955ZM266.006 563.5H255.46L271.528 516.955H284.21L300.256 563.5H289.71L278.051 527.591H277.688L266.006 563.5ZM265.347 545.205H290.256V552.886H265.347V545.205ZM305.858 516.955H317.994L330.812 548.227H331.358L344.176 516.955H356.312V563.5H346.767V533.205H346.381L334.335 563.273H327.835L315.79 533.091H315.403V563.5H305.858V516.955ZM364.42 563.5V516.955H374.261V555.386H394.216V563.5H364.42Z" fill="black"/>
<rect x="-3" y="3" width="297" height="194" rx="28" transform="matrix(-1 0 0 1 450 799)" stroke="black" stroke-width="6"/>
<path d="M280.645 892.25H270.69C270.509 890.962 270.137 889.818 269.577 888.818C269.016 887.803 268.296 886.939 267.418 886.227C266.539 885.515 265.524 884.97 264.372 884.591C263.236 884.212 262.001 884.023 260.668 884.023C258.259 884.023 256.16 884.621 254.372 885.818C252.584 887 251.198 888.727 250.213 891C249.228 893.258 248.736 896 248.736 899.227C248.736 902.545 249.228 905.333 250.213 907.591C251.213 909.848 252.607 911.553 254.395 912.705C256.183 913.856 258.251 914.432 260.599 914.432C261.918 914.432 263.137 914.258 264.259 913.909C265.395 913.561 266.402 913.053 267.281 912.386C268.16 911.705 268.887 910.879 269.463 909.909C270.054 908.939 270.463 907.833 270.69 906.591L280.645 906.636C280.387 908.773 279.743 910.833 278.713 912.818C277.698 914.788 276.327 916.553 274.599 918.114C272.887 919.659 270.842 920.886 268.463 921.795C266.099 922.689 263.425 923.136 260.44 923.136C256.289 923.136 252.577 922.197 249.304 920.318C246.046 918.439 243.471 915.72 241.577 912.159C239.698 908.598 238.759 904.288 238.759 899.227C238.759 894.152 239.713 889.833 241.622 886.273C243.531 882.712 246.122 880 249.395 878.136C252.668 876.258 256.349 875.318 260.44 875.318C263.137 875.318 265.637 875.697 267.94 876.455C270.259 877.212 272.312 878.318 274.099 879.773C275.887 881.212 277.342 882.977 278.463 885.068C279.599 887.159 280.327 889.553 280.645 892.25ZM312.952 889.341C312.77 887.508 311.99 886.083 310.611 885.068C309.232 884.053 307.361 883.545 304.997 883.545C303.391 883.545 302.035 883.773 300.929 884.227C299.823 884.667 298.974 885.28 298.384 886.068C297.808 886.856 297.52 887.75 297.52 888.75C297.49 889.583 297.664 890.311 298.043 890.932C298.437 891.553 298.974 892.091 299.656 892.545C300.338 892.985 301.126 893.371 302.02 893.705C302.914 894.023 303.868 894.295 304.884 894.523L309.065 895.523C311.096 895.977 312.959 896.583 314.656 897.341C316.353 898.098 317.823 899.03 319.065 900.136C320.308 901.242 321.27 902.545 321.952 904.045C322.649 905.545 323.005 907.265 323.02 909.205C323.005 912.053 322.277 914.523 320.838 916.614C319.414 918.689 317.353 920.303 314.656 921.455C311.974 922.591 308.74 923.159 304.952 923.159C301.194 923.159 297.921 922.583 295.134 921.432C292.361 920.28 290.194 918.576 288.634 916.318C287.088 914.045 286.277 911.235 286.202 907.886H295.724C295.83 909.447 296.277 910.75 297.065 911.795C297.868 912.826 298.937 913.606 300.27 914.136C301.618 914.652 303.141 914.909 304.838 914.909C306.505 914.909 307.952 914.667 309.179 914.182C310.421 913.697 311.384 913.023 312.065 912.159C312.747 911.295 313.088 910.303 313.088 909.182C313.088 908.136 312.777 907.258 312.156 906.545C311.55 905.833 310.656 905.227 309.474 904.727C308.308 904.227 306.876 903.773 305.179 903.364L300.111 902.091C296.187 901.136 293.088 899.644 290.815 897.614C288.543 895.583 287.414 892.848 287.429 889.409C287.414 886.591 288.164 884.129 289.679 882.023C291.209 879.917 293.308 878.273 295.974 877.091C298.641 875.909 301.671 875.318 305.065 875.318C308.52 875.318 311.535 875.909 314.111 877.091C316.702 878.273 318.717 879.917 320.156 882.023C321.596 884.129 322.338 886.568 322.384 889.341H312.952ZM338.048 875.955L349.298 911.318H349.73L361.003 875.955H371.912L355.866 922.5H343.185L327.116 875.955H338.048Z" fill="black"/>
<path d="M808.134 540C604.167 540 628.554 898.812 455.625 898.813" stroke="black" stroke-width="10" stroke-dasharray="20 20"/>
<path d="M808.377 534.306C604.41 534.306 628.797 175.494 455.869 175.494" stroke="black" stroke-width="10" stroke-dasharray="20 20"/>
<path d="M811.586 536.378C813.486 538.378 813.481 541.621 811.575 543.622L780.505 576.221C778.598 578.222 775.512 578.222 773.611 576.221C771.711 574.221 771.716 570.977 773.622 568.977L801.24 540L773.71 511.023C771.809 509.022 771.814 505.779 773.72 503.779C775.627 501.778 778.713 501.778 780.614 503.779L811.586 536.378ZM808.133 540L808.126 545.122L798.488 545.122L798.496 540L798.503 534.877L808.141 534.877L808.133 540ZM779.22 540L779.212 545.122L759.936 545.122L759.944 540L759.952 534.877L779.227 534.877L779.22 540ZM740.668 540L740.66 545.122L721.384 545.122L721.392 540L721.4 534.877L740.676 534.877L740.668 540ZM702.116 540L702.108 545.122L682.833 545.122L682.84 540L682.848 534.877L702.124 534.877L702.116 540ZM663.564 540L663.557 545.122L644.281 545.122L644.289 540L644.296 534.877L663.572 534.877L663.564 540ZM625.013 540L625.005 545.122L605.729 545.122L605.737 540L605.745 534.877L625.02 534.877L625.013 540ZM586.461 540L586.453 545.122L567.177 545.122L567.185 540L567.193 534.877L586.469 534.877L586.461 540ZM547.909 540L547.902 545.122L528.626 545.122L528.633 540L528.641 534.877L547.917 534.877L547.909 540ZM509.358 540L509.35 545.122L490.074 545.122L490.082 540L490.089 534.877L509.365 534.877L509.358 540ZM470.806 540L470.798 545.122L461.16 545.122L461.168 540L461.176 534.877L470.814 534.877L470.806 540ZM811.586 536.378C813.486 538.378 813.481 541.621 811.575 543.622L780.505 576.221C778.598 578.222 775.512 578.222 773.611 576.221C771.711 574.221 771.716 570.977 773.622 568.977L801.24 540L773.71 511.023C771.809 509.022 771.814 505.779 773.72 503.779C775.627 501.778 778.713 501.778 780.614 503.779L811.586 536.378ZM808.133 540L808.126 545.122L798.488 545.122L798.496 540L798.503 534.877L808.141 534.877L808.133 540ZM779.22 540L779.212 545.122L759.936 545.122L759.944 540L759.952 534.877L779.227 534.877L779.22 540ZM740.668 540L740.66 545.122L721.384 545.122L721.392 540L721.4 534.877L740.676 534.877L740.668 540ZM702.116 540L702.108 545.122L682.833 545.122L682.84 540L682.848 534.877L702.124 534.877L702.116 540ZM663.564 540L663.557 545.122L644.281 545.122L644.289 540L644.296 534.877L663.572 534.877L663.564 540ZM625.013 540L625.005 545.122L605.729 545.122L605.737 540L605.745 534.877L625.02 534.877L625.013 540ZM586.461 540L586.453 545.122L567.177 545.122L567.185 540L567.193 534.877L586.469 534.877L586.461 540ZM547.909 540L547.902 545.122L528.626 545.122L528.633 540L528.641 534.877L547.917 534.877L547.909 540ZM509.358 540L509.35 545.122L490.074 545.122L490.082 540L490.089 534.877L509.365 534.877L509.358 540ZM470.806 540L470.798 545.122L461.16 545.122L461.168 540L461.176 534.877L470.814 534.877L470.806 540Z" fill="black"/>
</svg>
