<svg width="1920" height="1080" viewBox="0 0 1920 1080" fill="none" xmlns="http://www.w3.org/2000/svg">
<rect width="1920" height="1080" fill="white"/>
<rect x="484" y="443" width="297" height="194" rx="28" stroke="black" stroke-width="6"/>
<path d="M573.795 563.5H557.295V516.955H573.932C578.614 516.955 582.644 517.886 586.023 519.75C589.402 521.598 592 524.258 593.818 527.727C595.652 531.197 596.568 535.348 596.568 540.182C596.568 545.03 595.652 549.197 593.818 552.682C592 556.167 589.386 558.841 585.977 560.705C582.583 562.568 578.523 563.5 573.795 563.5ZM567.136 555.068H573.386C576.295 555.068 578.742 554.553 580.727 553.523C582.727 552.477 584.227 550.864 585.227 548.682C586.242 546.485 586.75 543.652 586.75 540.182C586.75 536.742 586.242 533.932 585.227 531.75C584.227 529.568 582.735 527.962 580.75 526.932C578.765 525.902 576.318 525.386 573.409 525.386H567.136V555.068ZM613.358 543.318V563.5H603.676V516.955H613.085V534.75H613.494C614.282 532.689 615.555 531.076 617.312 529.909C619.07 528.727 621.275 528.136 623.926 528.136C626.35 528.136 628.464 528.667 630.267 529.727C632.085 530.773 633.494 532.28 634.494 534.25C635.509 536.205 636.009 538.545 635.994 541.273V563.5H626.312V543C626.328 540.848 625.782 539.174 624.676 537.977C623.585 536.78 622.055 536.182 620.085 536.182C618.767 536.182 617.6 536.462 616.585 537.023C615.585 537.583 614.797 538.402 614.222 539.477C613.661 540.538 613.373 541.818 613.358 543.318ZM653.568 564.159C651.341 564.159 649.356 563.773 647.614 563C645.871 562.212 644.492 561.053 643.477 559.523C642.477 557.977 641.977 556.053 641.977 553.75C641.977 551.811 642.333 550.182 643.045 548.864C643.758 547.545 644.727 546.485 645.955 545.682C647.182 544.879 648.576 544.273 650.136 543.864C651.712 543.455 653.364 543.167 655.091 543C657.121 542.788 658.758 542.591 660 542.409C661.242 542.212 662.144 541.924 662.705 541.545C663.265 541.167 663.545 540.606 663.545 539.864V539.727C663.545 538.288 663.091 537.174 662.182 536.386C661.288 535.598 660.015 535.205 658.364 535.205C656.621 535.205 655.235 535.591 654.205 536.364C653.174 537.121 652.492 538.076 652.159 539.227L643.205 538.5C643.659 536.379 644.553 534.545 645.886 533C647.22 531.439 648.939 530.242 651.045 529.409C653.167 528.561 655.621 528.136 658.409 528.136C660.348 528.136 662.205 528.364 663.977 528.818C665.765 529.273 667.348 529.977 668.727 530.932C670.121 531.886 671.22 533.114 672.023 534.614C672.826 536.098 673.227 537.879 673.227 539.955V563.5H664.045V558.659H663.773C663.212 559.75 662.462 560.712 661.523 561.545C660.583 562.364 659.455 563.008 658.136 563.477C656.818 563.932 655.295 564.159 653.568 564.159ZM656.341 557.477C657.765 557.477 659.023 557.197 660.114 556.636C661.205 556.061 662.061 555.288 662.682 554.318C663.303 553.348 663.614 552.25 663.614 551.023V547.318C663.311 547.515 662.894 547.697 662.364 547.864C661.848 548.015 661.265 548.159 660.614 548.295C659.962 548.417 659.311 548.53 658.659 548.636C658.008 548.727 657.417 548.811 656.886 548.886C655.75 549.053 654.758 549.318 653.909 549.682C653.061 550.045 652.402 550.538 651.932 551.159C651.462 551.765 651.227 552.523 651.227 553.432C651.227 554.75 651.705 555.758 652.659 556.455C653.629 557.136 654.856 557.477 656.341 557.477ZM690.42 516.955V563.5H680.739V516.955H690.42ZM707.858 516.955V563.5H698.176V516.955H707.858Z" fill="black"/>
<rect x="1139" y="84" width="297" height="194" rx="28" stroke="black" stroke-width="6"/>
<path d="M1196.63 157.955H1207.65L1218.27 178H1218.72L1229.34 157.955H1240.36L1223.38 188.045V204.5H1213.61V188.045L1196.63 157.955ZM1249.01 204.5H1238.46L1254.53 157.955H1267.21L1283.26 204.5H1272.71L1261.05 168.591H1260.69L1249.01 204.5ZM1248.35 186.205H1273.26V193.886H1248.35V186.205ZM1288.86 157.955H1300.99L1313.81 189.227H1314.36L1327.18 157.955H1339.31V204.5H1329.77V174.205H1329.38L1317.34 204.273H1310.84L1298.79 174.091H1298.4V204.5H1288.86V157.955ZM1347.42 204.5V157.955H1357.26V196.386H1377.22V204.5H1347.42Z" fill="black"/>
<rect x="1139" y="443" width="297" height="194" rx="28" stroke="black" stroke-width="6"/>
<path d="M1222.4 516.955H1232.13V549.409C1232.13 552.409 1231.45 555.015 1230.11 557.227C1228.77 559.439 1226.92 561.144 1224.54 562.341C1222.16 563.538 1219.39 564.136 1216.24 564.136C1213.44 564.136 1210.89 563.644 1208.61 562.659C1206.33 561.659 1204.53 560.144 1203.2 558.114C1201.86 556.068 1201.2 553.5 1201.22 550.409H1211.01C1211.04 551.636 1211.29 552.689 1211.76 553.568C1212.25 554.432 1212.91 555.098 1213.74 555.568C1214.59 556.023 1215.59 556.25 1216.74 556.25C1217.95 556.25 1218.98 555.992 1219.81 555.477C1220.66 554.947 1221.3 554.174 1221.74 553.159C1222.18 552.144 1222.4 550.894 1222.4 549.409V516.955ZM1265.51 530.341C1265.33 528.508 1264.55 527.083 1263.17 526.068C1261.79 525.053 1259.92 524.545 1257.56 524.545C1255.95 524.545 1254.6 524.773 1253.49 525.227C1252.39 525.667 1251.54 526.28 1250.95 527.068C1250.37 527.856 1250.08 528.75 1250.08 529.75C1250.05 530.583 1250.23 531.311 1250.61 531.932C1251 532.553 1251.54 533.091 1252.22 533.545C1252.9 533.985 1253.69 534.371 1254.58 534.705C1255.48 535.023 1256.43 535.295 1257.45 535.523L1261.63 536.523C1263.66 536.977 1265.52 537.583 1267.22 538.341C1268.92 539.098 1270.39 540.03 1271.63 541.136C1272.87 542.242 1273.83 543.545 1274.51 545.045C1275.21 546.545 1275.57 548.265 1275.58 550.205C1275.57 553.053 1274.84 555.523 1273.4 557.614C1271.98 559.689 1269.92 561.303 1267.22 562.455C1264.54 563.591 1261.3 564.159 1257.51 564.159C1253.76 564.159 1250.48 563.583 1247.7 562.432C1244.92 561.28 1242.76 559.576 1241.2 557.318C1239.65 555.045 1238.84 552.235 1238.76 548.886H1248.29C1248.39 550.447 1248.84 551.75 1249.63 552.795C1250.43 553.826 1251.5 554.606 1252.83 555.136C1254.18 555.652 1255.7 555.909 1257.4 555.909C1259.07 555.909 1260.51 555.667 1261.74 555.182C1262.98 554.697 1263.95 554.023 1264.63 553.159C1265.31 552.295 1265.65 551.303 1265.65 550.182C1265.65 549.136 1265.34 548.258 1264.72 547.545C1264.11 546.833 1263.22 546.227 1262.04 545.727C1260.87 545.227 1259.44 544.773 1257.74 544.364L1252.67 543.091C1248.75 542.136 1245.65 540.644 1243.38 538.614C1241.11 536.583 1239.98 533.848 1239.99 530.409C1239.98 527.591 1240.73 525.129 1242.24 523.023C1243.77 520.917 1245.87 519.273 1248.54 518.091C1251.2 516.909 1254.23 516.318 1257.63 516.318C1261.08 516.318 1264.1 516.909 1266.67 518.091C1269.26 519.273 1271.28 520.917 1272.72 523.023C1274.16 525.129 1274.9 527.568 1274.95 530.341H1265.51ZM1324.97 540.227C1324.97 545.303 1324.01 549.621 1322.09 553.182C1320.18 556.742 1317.57 559.462 1314.27 561.341C1310.98 563.205 1307.29 564.136 1303.18 564.136C1299.04 564.136 1295.33 563.197 1292.04 561.318C1288.75 559.439 1286.16 556.72 1284.25 553.159C1282.34 549.598 1281.38 545.288 1281.38 540.227C1281.38 535.152 1282.34 530.833 1284.25 527.273C1286.16 523.712 1288.75 521 1292.04 519.136C1295.33 517.258 1299.04 516.318 1303.18 516.318C1307.29 516.318 1310.98 517.258 1314.27 519.136C1317.57 521 1320.18 523.712 1322.09 527.273C1324.01 530.833 1324.97 535.152 1324.97 540.227ZM1315 540.227C1315 536.939 1314.5 534.167 1313.52 531.909C1312.55 529.652 1311.18 527.939 1309.41 526.773C1307.63 525.606 1305.56 525.023 1303.18 525.023C1300.8 525.023 1298.72 525.606 1296.95 526.773C1295.18 527.939 1293.8 529.652 1292.82 531.909C1291.85 534.167 1291.36 536.939 1291.36 540.227C1291.36 543.515 1291.85 546.288 1292.82 548.545C1293.8 550.803 1295.18 552.515 1296.95 553.682C1298.72 554.848 1300.8 555.432 1303.18 555.432C1305.56 555.432 1307.63 554.848 1309.41 553.682C1311.18 552.515 1312.55 550.803 1313.52 548.545C1314.5 546.288 1315 543.515 1315 540.227ZM1371.2 516.955V563.5H1362.7L1342.45 534.205H1342.11V563.5H1332.26V516.955H1340.9L1360.99 546.227H1361.4V516.955H1371.2Z" fill="black"/>
<rect x="1139" y="802" width="297" height="194" rx="28" stroke="black" stroke-width="6"/>
<path d="M1263.64 892.25H1253.69C1253.51 890.962 1253.14 889.818 1252.58 888.818C1252.02 887.803 1251.3 886.939 1250.42 886.227C1249.54 885.515 1248.52 884.97 1247.37 884.591C1246.24 884.212 1245 884.023 1243.67 884.023C1241.26 884.023 1239.16 884.621 1237.37 885.818C1235.58 887 1234.2 888.727 1233.21 891C1232.23 893.258 1231.74 896 1231.74 899.227C1231.74 902.545 1232.23 905.333 1233.21 907.591C1234.21 909.848 1235.61 911.553 1237.39 912.705C1239.18 913.856 1241.25 914.432 1243.6 914.432C1244.92 914.432 1246.14 914.258 1247.26 913.909C1248.39 913.561 1249.4 913.053 1250.28 912.386C1251.16 911.705 1251.89 910.879 1252.46 909.909C1253.05 908.939 1253.46 907.833 1253.69 906.591L1263.64 906.636C1263.39 908.773 1262.74 910.833 1261.71 912.818C1260.7 914.788 1259.33 916.553 1257.6 918.114C1255.89 919.659 1253.84 920.886 1251.46 921.795C1249.1 922.689 1246.43 923.136 1243.44 923.136C1239.29 923.136 1235.58 922.197 1232.3 920.318C1229.05 918.439 1226.47 915.72 1224.58 912.159C1222.7 908.598 1221.76 904.288 1221.76 899.227C1221.76 894.152 1222.71 889.833 1224.62 886.273C1226.53 882.712 1229.12 880 1232.39 878.136C1235.67 876.258 1239.35 875.318 1243.44 875.318C1246.14 875.318 1248.64 875.697 1250.94 876.455C1253.26 877.212 1255.31 878.318 1257.1 879.773C1258.89 881.212 1260.34 882.977 1261.46 885.068C1262.6 887.159 1263.33 889.553 1263.64 892.25ZM1295.95 889.341C1295.77 887.508 1294.99 886.083 1293.61 885.068C1292.23 884.053 1290.36 883.545 1288 883.545C1286.39 883.545 1285.04 883.773 1283.93 884.227C1282.82 884.667 1281.97 885.28 1281.38 886.068C1280.81 886.856 1280.52 887.75 1280.52 888.75C1280.49 889.583 1280.66 890.311 1281.04 890.932C1281.44 891.553 1281.97 892.091 1282.66 892.545C1283.34 892.985 1284.13 893.371 1285.02 893.705C1285.91 894.023 1286.87 894.295 1287.88 894.523L1292.07 895.523C1294.1 895.977 1295.96 896.583 1297.66 897.341C1299.35 898.098 1300.82 899.03 1302.07 900.136C1303.31 901.242 1304.27 902.545 1304.95 904.045C1305.65 905.545 1306 907.265 1306.02 909.205C1306 912.053 1305.28 914.523 1303.84 916.614C1302.41 918.689 1300.35 920.303 1297.66 921.455C1294.97 922.591 1291.74 923.159 1287.95 923.159C1284.19 923.159 1280.92 922.583 1278.13 921.432C1275.36 920.28 1273.19 918.576 1271.63 916.318C1270.09 914.045 1269.28 911.235 1269.2 907.886H1278.72C1278.83 909.447 1279.28 910.75 1280.07 911.795C1280.87 912.826 1281.94 913.606 1283.27 914.136C1284.62 914.652 1286.14 914.909 1287.84 914.909C1289.5 914.909 1290.95 914.667 1292.18 914.182C1293.42 913.697 1294.38 913.023 1295.07 912.159C1295.75 911.295 1296.09 910.303 1296.09 909.182C1296.09 908.136 1295.78 907.258 1295.16 906.545C1294.55 905.833 1293.66 905.227 1292.47 904.727C1291.31 904.227 1289.88 903.773 1288.18 903.364L1283.11 902.091C1279.19 901.136 1276.09 899.644 1273.82 897.614C1271.54 895.583 1270.41 892.848 1270.43 889.409C1270.41 886.591 1271.16 884.129 1272.68 882.023C1274.21 879.917 1276.31 878.273 1278.97 877.091C1281.64 875.909 1284.67 875.318 1288.07 875.318C1291.52 875.318 1294.54 875.909 1297.11 877.091C1299.7 878.273 1301.72 879.917 1303.16 882.023C1304.6 884.129 1305.34 886.568 1305.38 889.341H1295.95ZM1321.05 875.955L1332.3 911.318H1332.73L1344 875.955H1354.91L1338.87 922.5H1326.18L1310.12 875.955H1321.05Z" fill="black"/>
<path d="M1139.83 902.434C1141.73 900.434 1141.72 897.191 1139.82 895.19L1108.75 862.591C1106.84 860.59 1103.75 860.59 1101.85 862.591C1099.95 864.591 1099.96 867.835 1101.86 869.835L1129.48 898.812L1101.95 927.789C1100.05 929.79 1100.06 933.033 1101.96 935.034C1103.87 937.034 1106.96 937.034 1108.86 935.034L1139.83 902.434ZM783.867 540L783.875 545.123C820.196 545.123 849.651 566.262 876.303 599.369C903.013 632.547 926.236 676.893 950.259 721.907C974.145 766.663 998.806 812.039 1028.19 846.181C1057.66 880.425 1092.37 903.935 1136.38 903.935L1136.38 898.812L1136.37 893.69C1096.13 893.69 1063.85 872.348 1035.42 839.315C1006.9 806.179 982.748 761.853 958.76 716.906C934.91 672.216 911.194 626.859 883.742 592.76C856.233 558.589 824.304 534.878 783.86 534.878L783.867 540Z" fill="black"/>
<path d="M1139.77 177.174C1141.67 179.174 1141.67 182.417 1139.76 184.418L1108.69 217.017C1106.78 219.017 1103.7 219.017 1101.8 217.017C1099.9 215.017 1099.9 211.773 1101.81 209.773L1129.43 180.796L1101.9 151.819C1100 149.818 1100 146.575 1101.91 144.574C1103.81 142.574 1106.9 142.574 1108.8 144.574L1139.77 177.174ZM783.812 539.608L783.82 534.485C820.14 534.485 849.595 513.346 876.248 480.239C902.957 447.061 926.18 402.715 950.203 357.701C974.089 312.945 998.75 267.568 1028.13 233.427C1057.61 199.183 1092.32 175.673 1136.33 175.673L1136.32 180.796L1136.31 185.918C1096.07 185.918 1063.79 207.26 1035.36 240.293C1006.84 273.429 982.692 317.755 958.705 362.702C934.854 407.391 911.138 452.749 883.686 486.848C856.178 521.019 824.248 544.73 783.804 544.73L783.812 539.608Z" fill="black"/>
<path d="M1134.28 543.622C1136.19 541.622 1136.18 538.378 1134.27 536.378L1103.2 503.779C1101.3 501.778 1098.21 501.778 1096.31 503.779C1094.41 505.779 1094.41 509.022 1096.32 511.023L1123.94 540L1096.41 568.977C1094.51 570.977 1094.51 574.221 1096.42 576.221C1098.33 578.222 1101.41 578.222 1103.31 576.221L1134.28 543.622ZM783.867 540L783.875 545.122L1130.84 545.122L1130.83 540L1130.82 534.877L783.859 534.877L783.867 540Z" fill="black"/>
</svg>
